<svg xmlns="http://www.w3.org/2000/svg" viewBox="0 0 400 220" width="400" height="220">
  <rect width="400" height="220" fill="#1a1a2e" rx="8"/>
  
  <line x1="40" y1="160" x2="370" y2="160" stroke="#444" stroke-width="1.5"/>
  <line x1="200" y1="20" x2="200" y2="190" stroke="#444" stroke-width="1.5"/>
  
  <polygon points="370,160 364,156 364,164" fill="#444"/>
  <polygon points="200,20 196,26 204,26" fill="#444"/>
  
  <text x="375" y="164" fill="#a0a0b0" font-size="12" font-family="Inter,sans-serif">x</text>
  <text x="204" y="16" fill="#a0a0b0" font-size="12" font-family="Inter,sans-serif">y</text>
  
  <text x="80" y="176" fill="#a0a0b0" font-size="11" font-family="Inter,sans-serif">-5</text>
  <text x="112" y="176" fill="#a0a0b0" font-size="11" font-family="Inter,sans-serif">-4</text>
  <text x="197" y="176" fill="#a0a0b0" font-size="11" font-family="Inter,sans-serif">0</text>
  <text x="296" y="176" fill="#a0a0b0" font-size="11" font-family="Inter,sans-serif">3</text>
  <text x="352" y="176" fill="#a0a0b0" font-size="11" font-family="Inter,sans-serif">5</text>
  
  <line x1="88" y1="157" x2="88" y2="163" stroke="#555" stroke-width="1"/>
  <line x1="120" y1="157" x2="120" y2="163" stroke="#555" stroke-width="1"/>
  <line x1="152" y1="157" x2="152" y2="163" stroke="#555" stroke-width="1"/>
  <line x1="168" y1="157" x2="168" y2="163" stroke="#555" stroke-width="1"/>
  <line x1="232" y1="157" x2="232" y2="163" stroke="#555" stroke-width="1"/>
  <line x1="264" y1="157" x2="264" y2="163" stroke="#555" stroke-width="1"/>
  <line x1="296" y1="157" x2="296" y2="163" stroke="#555" stroke-width="1"/>
  <line x1="328" y1="157" x2="328" y2="163" stroke="#555" stroke-width="1"/>
  <line x1="360" y1="157" x2="360" y2="163" stroke="#555" stroke-width="1"/>
  
  <path d="M 88,120 Q 104,120 120,100" stroke="#e94560" stroke-width="2.5" fill="none"/>
  
  <circle cx="120" cy="100" r="5" fill="#1a1a2e" stroke="#e94560" stroke-width="2"/>
  
  <path d="M 120,130 Q 160,160 200,130" stroke="#e94560" stroke-width="2.5" fill="none"/>
  
  <circle cx="120" cy="130" r="3.5" fill="#e94560"/>
  
  <path d="M 200,130 Q 248,100 296,120" stroke="#e94560" stroke-width="2.5" fill="none"/>
  
  <circle cx="296" cy="120" r="5" fill="#1a1a2e" stroke="#e94560" stroke-width="2"/>
  
  <circle cx="296" cy="140" r="3.5" fill="#e94560"/>
  
  <path d="M 296,140 Q 328,155 360,130" stroke="#e94560" stroke-width="2.5" fill="none"/>
  
  <text x="108" y="90" fill="#ff6b81" font-size="10" font-family="Inter,sans-serif">x=-4</text>
  <text x="188" y="120" fill="#ff6b81" font-size="10" font-family="Inter,sans-serif">x=0</text>
  <text x="300" y="114" fill="#ff6b81" font-size="10" font-family="Inter,sans-serif">x=3</text>
  
  <text x="100" y="46" fill="#a0a0b0" font-size="10" font-family="Inter,sans-serif">Acik daire: sureksizlik</text>
  <text x="100" y="60" fill="#a0a0b0" font-size="10" font-family="Inter,sans-serif">Dolu daire: fonksiyon degeri</text>
  <text x="100" y="74" fill="#a0a0b0" font-size="10" font-family="Inter,sans-serif">Keskin kose: turev yok</text>
</svg>
